nColumns=19
nRows=70
DataType=double
version=3
OpenSimVersion=4.1
endheader
time	ground_force_calcn_r_vx	ground_force_calcn_r_vy	ground_force_calcn_r_vz	ground_force_calcn_r_px	ground_force_calcn_r_py	ground_force_calcn_r_pz	ground_force_calcn_r_mx	ground_force_calcn_r_my	ground_force_calcn_r_mz	ground_force_calcn_l_vx	ground_force_calcn_l_vy	ground_force_calcn_l_vz	ground_force_calcn_l_px	ground_force_calcn_l_py	ground_force_calcn_l_pz	ground_force_calcn_l_mx	ground_force_calcn_l_my	ground_force_calcn_l_mz
0.26	-2.20495	20.4454	-8.25081	1.2646	0	-0.400171	-0.393242	3.64634	-1.47149	0	0	0	0	0	0	0	0	0
0.27	-13.0093	81.3714	-11.5236	1.24653	0	-0.41969	-0.677786	4.23945	-0.600381	0	0	0	0	0	0	0	0	0
0.28	-28.5918	261.801	-10.6933	1.25764	0	-0.41921	-0.400517	3.66734	-0.149793	0	0	0	0	0	0	0	0	0
0.29	-40.2812	613.004	0.0672747	1.25232	0	-0.414518	-0.137605	2.09409	0.000229818	0	0	0	0	0	0	0	0	0
0.3	-58.1436	1025.92	18.4289	1.23766	0	-0.410758	0.00434964	-0.0767477	-0.00137864	0	0	0	0	0	0	0	0	0
0.31	-100.999	1298.39	30.5975	1.22111	0	-0.410287	0.172203	-2.21376	-0.0521686	0	0	0	0	0	0	0	0	0
0.32	-153.916	1387.86	29.2376	1.20175	0	-0.410758	0.417476	-3.76438	-0.0793029	0	0	0	0	0	0	0	0	0
0.33	-193.512	1433.46	19.419	1.17604	0	-0.40996	0.614551	-4.55237	-0.0616705	0	0	0	0	0	0	0	0	0
0.34	-207.918	1550.9	8.24184	1.14737	0	-0.408876	0.64677	-4.82437	-0.0256379	0	0	0	0	0	0	0	0	0
0.35	-186.012	1711.47	1.91811	1.11671	0	-0.407932	0.546208	-5.02558	-0.00563238	0	0	0	0	0	0	0	0	0
0.36	-140.777	1839.63	2.36219	1.08348	0	-0.407619	0.424688	-5.54971	-0.00712615	0	0	0	0	0	0	0	0	0
0.37	-82.0976	1902.93	7.94323	1.04822	0	-0.407708	0.284712	-6.5993	-0.0275469	0	0	0	0	0	0	0	0	0
0.38	-18.7738	1903.22	16.785	1.01275	0	-0.408206	0.0799336	-8.10338	-0.071466	0	0	0	0	0	0	0	0	0
0.39	47.8294	1844	28.3238	0.977681	0	-0.409402	-0.252802	-9.74645	-0.149705	0	0	0	0	0	0	0	0	0
0.4	117.98	1729.08	42.1127	0.941825	0	-0.411221	-0.753808	-11.0476	-0.269071	0	0	0	0	0	0	0	0	0
0.41	190.524	1563.71	55.5116	0.904366	0	-0.413466	-1.39826	-11.4761	-0.407402	0	0	0	0	0	0	0	0	0
0.42	247.669	1352.41	64.6738	0.865619	0	-0.415569	-1.95119	-10.6546	-0.509515	0	0	0	0	0	0	0	0	0
0.43	272.393	1104.88	66.1412	0.826703	0	-0.41731	-2.11011	-8.55905	-0.512367	0	0	0	0	0	0	0	0	0
0.44	264.996	839.8	59.2838	0.787914	0	-0.418842	-1.74817	-5.54012	-0.391093	0	0	0	0	0	0	0	0	0
0.45	233.603	586.48	47.0826	0.750762	0	-0.419636	-0.897479	-2.25319	-0.180886	0	0	0	0	0	0	0	0	0
0.46	185.766	372.093	33.6719	0.718532	0	-0.417357	0.264858	0.530515	0.048008	0	0	0	0	0	0	0	0	0
0.47	129.208	208.911	21.4288	0.688734	0	-0.408779	1.39883	2.2617	0.231992	0	0	0	0	0	0	0	0	0
0.48	71.4052	99.7802	11.1652	0.653597	0	-0.389071	2.11729	2.95866	0.331068	0	0	0	0	0	0	0	0	0
0.49	27.9839	39.5386	3.89963	0.625404	0	-0.338137	2.24635	3.17389	0.313036	0	0	0	0	0	0	0	0	0
0.5	5.83974	13.0391	0.283847	0.712224	0	-0.210962	1.62073	3.6188	0.0787774	0	0	0	0	0	0	0	0	0
0.51	0	0	0	0	0	0	0	0	0	0	0	0	0	0	0	0	0	0
0.52	0	0	0	0	0	0	0	0	0	0	0	0	0	0	0	0	0	0
0.53	0	0	0	0	0	0	0	0	0	0	0	0	0	0	0	0	0	0
0.54	0	0	0	0	0	0	0	0	0	0	0	0	0	0	0	0	0	0
0.55	0	0	0	0	0	0	0	0	0	0	0	0	0	0	0	0	0	0
0.56	0	0	0	0	0	0	0	0	0	0	0	0	0	0	0	0	0	0
0.57	0	0	0	0	0	0	0	0	0	-6.04238	17.1898	-4.50233	1.23104	0	-0.439937	-0.206939	0.588716	-0.154196
0.58	0	0	0	0	0	0	0	0	0	-22.1178	75.049	-4.69937	1.28645	0	-0.437978	0.520454	-1.76598	0.110581
0.59	0	0	0	0	0	0	0	0	0	-58.383	249.649	0.345514	1.28545	0	-0.43751	1.18777	-5.07894	-0.00702925
0.6	0	0	0	0	0	0	0	0	0	-103.803	605.703	12.5774	1.276	0	-0.434475	1.47928	-8.63179	-0.179239
0.61	0	0	0	0	0	0	0	0	0	-148.417	1068.47	24.6295	1.26369	0	-0.431941	1.57698	-11.3529	-0.261697
0.62	0	0	0	0	0	0	0	0	0	-197.863	1409.58	23.9829	1.25046	0	-0.432137	1.73472	-12.3583	-0.210266
0.63	0	0	0	0	0	0	0	0	0	-243.069	1546.19	11.0427	1.23242	0	-0.433507	1.78214	-11.3364	-0.080963
0.64	0	0	0	0	0	0	0	0	0	-272.581	1651.33	-2.36857	1.20472	0	-0.433723	1.41125	-8.54953	0.0122629
0.65	0	0	0	0	0	0	0	0	0	-265.353	1820.91	-12.1846	1.17245	0	-0.432539	0.656392	-4.50432	0.0301404
0.66	0	0	0	0	0	0	0	0	0	-223.182	1980.49	-21.9505	1.14037	0	-0.431237	-0.0349774	0.310385	-0.00344011
0.67	0	0	0	0	0	0	0	0	0	-169.014	2059.81	-32.1493	1.10834	0	-0.430418	-0.435443	5.30684	-0.0828287
0.68	0	0	0	0	0	0	0	0	0	-101.688	2060.41	-41.0169	1.0752	0	-0.429577	-0.488721	9.90247	-0.19713
0.69	0	0	0	0	0	0	0	0	0	-24.9912	2000.42	-48.8137	1.04081	0	-0.428213	-0.170086	13.6145	-0.332218
0.7	0	0	0	0	0	0	0	0	0	52.1857	1884.94	-56.0942	1.00527	0	-0.426235	0.445512	16.0919	-0.478879
0.71	0	0	0	0	0	0	0	0	0	126.426	1712.92	-61.2579	0.968078	0	-0.423927	1.26562	17.1476	-0.613236
0.72	0	0	0	0	0	0	0	0	0	190.873	1485.13	-63.0847	0.929084	0	-0.421787	2.15491	16.7668	-0.712212
0.73	0	0	0	0	0	0	0	0	0	233.901	1216.09	-62.4126	0.890101	0	-0.420331	2.90684	15.1131	-0.775642
0.74	0	0	0	0	0	0	0	0	0	244.047	932.066	-59.3184	0.852787	0	-0.419418	3.28082	12.5302	-0.797443
0.75	0	0	0	0	0	0	0	0	0	221.489	660.214	-52.9939	0.817047	0	-0.418652	3.17432	9.462	-0.759494
0.76	0	0	0	0	0	0	0	0	0	174.632	423.7	-43.6433	0.782456	0	-0.418678	2.62926	6.37924	-0.657096
0.77	0	0	0	0	0	0	0	0	0	117.504	240.052	-32.1859	0.748185	0	-0.419684	1.81222	3.70225	-0.496393
0.78	0	0	0	0	0	0	0	0	0	64.9851	115.397	-20.5875	0.713581	0	-0.419531	0.963577	1.71106	-0.305265
0.79	0	0	0	0	0	0	0	0	0	28.2758	44.4222	-11.7514	0.688882	0	-0.417278	0.307331	0.482826	-0.127726
0.8	0	0	0	0	0	0	0	0	0	10.3957	13.8185	-6.48461	0.742271	0	-0.404578	-0.0375741	-0.0499451	0.0234378
0.81	0	0	0	0	0	0	0	0	0	0	0	0	0	0	0	0	0	0
0.82	0	0	0	0	0	0	0	0	0	0	0	0	0	0	0	0	0	0
0.83	0	0	0	0	0	0	0	0	0	0	0	0	0	0	0	0	0	0
0.84	0	0	0	0	0	0	0	0	0	0	0	0	0	0	0	0	0	0
0.85	0	0	0	0	0	0	0	0	0	0	0	0	0	0	0	0	0	0
0.86	0	0	0	0	0	0	0	0	0	0	0	0	0	0	0	0	0	0
0.87	0	0	0	0	0	0	0	0	0	0	0	0	0	0	0	0	0	0
0.88	-2.3851	10.6375	-5.45861	1.11902	0	-0.380825	-0.511559	2.28153	-1.17077	0	0	0	0	0	0	0	0	0
0.89	-10.2933	35.2635	-9.47128	1.2337	0	-0.453681	-0.960609	3.29093	-0.883898	0	0	0	0	0	0	0	0	0
0.9	-25.7093	129.418	-13.4016	1.29397	0	-0.451826	-0.805597	4.05527	-0.419937	0	0	0	0	0	0	0	0	0
0.91	-50.1706	370.439	-10.8865	1.29873	0	-0.443725	-0.526804	3.8897	-0.114311	0	0	0	0	0	0	0	0	0
0.92	-83.9847	761.442	2.55488	1.28641	0	-0.436603	-0.298846	2.70947	0.00909116	0	0	0	0	0	0	0	0	0
0.93	-136.666	1147.2	18.9504	1.27126	0	-0.433967	-0.0855374	0.718015	0.0118608	0	0	0	0	0	0	0	0	0
0.94	-200.93	1363.97	27.209	1.25565	0	-0.435089	0.247678	-1.68131	-0.0335394	0	0	0	0	0	0	0	0	0
0.95	-249.795	1444.82	27.9834	1.23535	0	-0.436217	0.709326	-4.10277	-0.0794626	0	0	0	0	0	0	0	0	0
